<svg width="21" height="21" viewBox="0 0 21 21" fill="none" xmlns="http://www.w3.org/2000/svg">
<path fill-rule="evenodd" clip-rule="evenodd" d="M4.12324 11.5236L9.47487 17.0719C9.82861 17.4387 10.3326 17.5698 10.7939 17.4651C11.0575 17.4093 11.3081 17.2768 11.5099 17.0677L16.878 11.5039C18.642 9.6718 18.6405 6.725 16.8746 4.8948C15.1208 3.07711 12.2812 3.03581 10.4781 4.77211C8.67679 3.06787 5.86357 3.11841 4.12256 4.92327C2.35887 6.75163 2.35917 9.69564 4.12324 11.5236ZM15.8671 5.86688C17.11 7.15508 17.1111 9.24333 15.8695 10.5329L10.4825 16.1L5.13066 10.5514C3.88997 9.2658 3.88975 7.18115 5.13018 5.89524C6.37061 4.60932 8.38195 4.6091 9.62264 5.89474L10.4791 6.78275L11.3652 5.8644C12.6094 4.57757 14.6242 4.57867 15.8671 5.86688Z" fill="black"/>
<mask id="mask0_2_301" style="mask-type:alpha" maskUnits="userSpaceOnUse" x="2" y="3" width="17" height="15">
<path fill-rule="evenodd" clip-rule="evenodd" d="M4.12324 11.5236L9.47487 17.0719C9.82861 17.4387 10.3326 17.5698 10.7939 17.4651C11.0575 17.4093 11.3081 17.2768 11.5099 17.0677L16.878 11.5039C18.642 9.6718 18.6405 6.725 16.8746 4.8948C15.1208 3.07711 12.2812 3.03581 10.4781 4.77211C8.67679 3.06787 5.86357 3.11841 4.12256 4.92327C2.35887 6.75163 2.35917 9.69564 4.12324 11.5236ZM15.8671 5.86688C17.11 7.15508 17.1111 9.24333 15.8695 10.5329L10.4825 16.1L5.13066 10.5514C3.88997 9.2658 3.88975 7.18115 5.13018 5.89524C6.37061 4.60932 8.38195 4.6091 9.62264 5.89474L10.4791 6.78275L11.3652 5.8644C12.6094 4.57757 14.6242 4.57867 15.8671 5.86688Z" fill="white"/>
</mask>
<g mask="url(#mask0_2_301)">
<rect width="21" height="21" fill="white"/>
</g>
</svg>
